<svg xmlns="http://www.w3.org/2000/svg" viewBox="0 0 640 300" width="640" height="300"><style>text{font-family:system-ui,'Malgun Gothic','Noto Sans KR',sans-serif;fill:#334155}.t{font-size:13px;font-weight:600;fill:#0f172a}.a{font-size:10.5px}.l{font-size:10.5px}.ax{stroke:#94a3b8;stroke-width:1;fill:none}.gr{stroke:#e2e8f0;stroke-width:1;fill:none}path.s{fill:none;stroke-width:1.5;stroke-linejoin:round;stroke-linecap:round}</style><rect width="640" height="300" fill="#fff"/><text class="t" x="62" y="21">R09 · 개구 비교 — 측정장비 레이저 &amp; 제어 프로그램 gPO</text><text class="a" x="624" y="25" text-anchor="end" fill="#64748b">r = 0.990</text><path class="gr" d="M62,254.0 L624,254.0"/><text class="a" x="55" y="257.5" text-anchor="end">-3</text><path class="gr" d="M62,199.0 L624,199.0"/><text class="a" x="55" y="202.5" text-anchor="end">12.8</text><path class="gr" d="M62,144.0 L624,144.0"/><text class="a" x="55" y="147.5" text-anchor="end">28.5</text><path class="gr" d="M62,89.0 L624,89.0"/><text class="a" x="55" y="92.5" text-anchor="end">44.2</text><path class="gr" d="M62,34.0 L624,34.0"/><text class="a" x="55" y="37.5" text-anchor="end">60</text><text class="a" x="62.0" y="270.0" text-anchor="middle">15.9</text><text class="a" x="174.4" y="270.0" text-anchor="middle">22.3</text><text class="a" x="286.8" y="270.0" text-anchor="middle">28.7</text><text class="a" x="399.2" y="270.0" text-anchor="middle">35.1</text><text class="a" x="511.6" y="270.0" text-anchor="middle">41.5</text><text class="a" x="624.0" y="270.0" text-anchor="middle">47.9</text><path class="ax" d="M62,34 L62,254 L624,254"/><path class="s" d="M62.0,59.0 L73.2,59.0 L73.4,71.1 L77.5,71.1 L77.6,77.1 L100.6,77.1 L100.8,59.0 L119.6,59.0 L119.8,72.6 L123.8,72.6 L124.0,77.1 L146.8,77.1 L147.0,59.0 L165.8,59.0 L166.0,68.8 L166.1,88.5 L170.2,88.5 L170.4,99.8 L193.2,99.8 L193.4,71.9 L197.4,71.9 L197.6,63.3 L197.8,59.0 L212.2,59.0 L212.3,84.7 L216.4,84.7 L216.5,99.8 L239.6,99.8 L239.7,71.9 L243.8,71.9 L243.9,59.0 L258.5,59.0 L258.7,71.1 L281.5,71.1 L281.7,59.0 L296.1,59.0 L296.3,63.0 L296.5,71.1 L319.3,71.1 L319.5,59.0 L334.0,59.0 L334.2,104.3 L338.1,104.3 L338.3,223.7 L365.7,224.5 L365.8,196.5 L369.9,196.5 L370.0,172.1 L370.2,123.2 L374.3,123.2 L374.4,59.0 L393.1,59.0 L393.2,99.1 L397.4,99.1 L397.6,220.0 L401.7,220.0 L401.8,224.5 L424.8,224.5 L425.0,200.3 L429.1,200.3 L429.2,126.3 L433.3,126.3 L433.4,81.4 L433.6,59.0 L452.2,59.0 L452.4,83.2 L456.5,83.2 L456.6,147.4 L460.7,147.4 L460.8,159.8 L461.0,184.4 L484.0,184.4 L484.2,159.5 L488.2,159.5 L488.4,85.5 L492.6,85.5 L492.8,59.0 L507.0,59.0 L507.2,80.2 L511.4,80.2 L511.6,144.4 L515.6,144.4 L515.8,184.4 L538.6,184.4 L538.8,170.5 L539.0,156.5 L543.0,156.5 L543.2,83.2 L547.3,83.2 L547.4,67.1 L547.6,59.0 L562.0,59.0 L562.2,68.1 L585.2,68.1 L585.4,59.0 L599.8,59.0 L599.9,68.1 L622.8,68.1 L622.9,59.0 L623.8,59.0" stroke="#2563eb" stroke-width="1.6"/><path class="s" d="M62.7,58.8 L64.5,58.8 L66.4,58.8 L68.3,58.8 L70.1,58.8 L72.0,58.8 L73.9,62.3 L75.7,73.8 L77.6,75.1 L79.6,75.1 L81.3,75.1 L83.3,75.1 L85.2,75.1 L86.9,75.1 L88.9,75.1 L90.8,75.1 L92.6,75.1 L94.5,75.1 L96.4,75.1 L98.2,75.1 L100.1,75.1 L102.0,61.5 L103.8,59.4 L105.7,59.5 L107.7,59.5 L109.4,59.5 L111.4,59.5 L113.3,59.5 L115.0,59.5 L117.0,59.5 L118.9,59.5 L120.7,67.0 L122.6,76.0 L124.5,76.0 L126.3,76.0 L128.2,76.0 L130.1,76.0 L131.9,76.0 L133.8,76.0 L135.8,76.0 L137.5,76.0 L139.5,76.0 L141.4,76.0 L143.1,76.0 L145.1,76.0 L147.0,73.5 L148.8,59.6 L150.7,59.4 L152.6,59.4 L154.4,59.4 L156.3,59.4 L158.2,59.4 L160.0,59.4 L161.9,59.4 L163.9,59.4 L165.6,60.5 L167.6,87.3 L169.5,98.2 L171.2,98.2 L173.2,98.2 L175.1,98.2 L177.0,98.2 L178.8,98.2 L180.7,98.2 L182.7,98.2 L184.4,98.2 L186.3,98.2 L188.3,98.2 L190.0,98.2 L192.0,98.2 L193.9,90.6 L195.7,63.9 L197.6,59.5 L199.5,59.5 L201.3,59.5 L203.2,59.5 L205.1,59.4 L206.9,59.5 L208.8,59.4 L210.8,59.4 L212.5,63.9 L214.4,93.6 L216.4,98.2 L218.1,98.2 L220.1,98.2 L222.0,98.2 L223.8,98.2 L225.7,98.2 L227.6,98.2 L229.4,98.2 L231.3,98.2 L233.2,98.2 L235.0,98.2 L236.9,98.2 L238.9,98.2 L240.6,84.2 L242.5,60.1 L244.5,59.5 L246.2,59.5 L248.2,59.5 L250.1,59.5 L251.9,59.5 L253.8,59.5 L255.7,59.5 L257.5,59.5 L259.4,68.1 L261.3,69.1 L263.1,69.1 L265.0,69.1 L267.0,69.1 L268.7,69.1 L270.6,69.1 L272.6,69.1 L274.3,69.1 L276.3,69.1 L278.2,69.1 L280.0,69.1 L281.9,65.7 L283.8,59.4 L285.6,59.4 L287.5,59.4 L289.4,59.4 L291.4,59.4 L293.1,59.4 L295.1,59.4 L297.0,67.1 L298.7,69.0 L300.7,69.0 L302.6,69.0 L304.4,69.0 L306.3,69.0 L308.2,69.0 L310.0,69.0 L311.9,69.0 L313.8,69.0 L315.6,69.0 L317.5,69.0 L319.5,66.6 L321.2,59.4 L323.2,59.4 L325.1,59.4 L326.8,59.4 L328.8,59.4 L330.7,59.4 L332.5,59.4 L334.4,71.1 L336.3,124.5 L338.1,174.8 L340.0,221.5 L341.9,225.1 L343.7,225.1 L345.6,225.1 L347.6,225.1 L349.3,225.1 L351.3,225.1 L353.2,225.1 L354.9,225.2 L356.9,225.1 L358.8,225.2 L360.6,225.2 L362.5,225.2 L364.4,225.2 L366.2,218.0 L368.1,185.4 L370.0,151.3 L371.8,120.6 L373.7,86.8 L375.7,60.6 L377.4,59.5 L379.4,59.5 L381.3,59.5 L383.0,59.5 L385.0,59.5 L386.9,59.5 L388.7,59.5 L390.6,59.5 L392.5,59.5 L394.3,85.7 L396.2,141.8 L398.1,197.0 L400.1,225.1 L401.8,225.1 L403.8,225.2 L405.7,225.2 L407.5,225.2 L409.4,225.2 L411.3,225.2 L413.1,225.2 L415.0,225.2 L416.9,225.2 L418.7,225.2 L420.6,225.2 L422.6,225.2 L424.3,225.1 L426.2,204.9 L428.2,171.3 L429.9,140.6 L431.9,106.8 L433.8,73.1 L435.6,59.6 L437.5,59.6 L439.4,59.5 L441.2,59.5 L443.1,59.5 L445.0,59.5 L446.8,59.5 L448.7,59.5 L450.7,59.5 L452.4,62.3 L454.3,87.8 L456.3,117.1 L458.0,143.6 L460.0,172.8 L461.9,184.4 L463.7,184.4 L465.6,184.4 L467.5,184.4 L469.3,184.4 L471.2,184.4 L473.1,184.4 L474.9,184.4 L476.8,184.4 L478.8,184.4 L480.5,184.4 L482.4,184.4 L484.4,179.9 L486.1,152.3 L488.1,117.8 L490.0,84.0 L491.8,60.7 L493.7,59.6 L495.6,59.5 L497.4,59.5 L499.3,59.5 L501.2,59.5 L503.0,59.5 L504.9,59.5 L506.9,59.8 L508.6,77.3 L510.5,106.6 L512.5,136.0 L514.4,166.0 L516.2,184.0 L518.1,184.4 L520.0,184.4 L521.8,184.4 L523.7,184.4 L525.6,184.4 L527.4,184.4 L529.3,184.4 L531.3,184.4 L533.0,184.4 L535.0,184.4 L536.9,184.4 L538.6,183.6 L540.6,158.2 L542.5,124.3 L544.3,93.7 L546.2,63.3 L548.1,59.6 L549.9,59.5 L551.8,59.5 L553.7,59.5 L555.5,59.5 L557.4,59.5 L559.4,59.5 L561.1,59.5 L563.1,64.3 L565.0,66.2 L566.7,66.2 L568.7,66.2 L570.6,66.2 L572.4,66.2 L574.3,66.2 L576.2,66.2 L578.0,66.2 L579.9,66.2 L581.8,66.2 L583.6,66.2 L585.5,63.2 L587.5,59.4 L589.2,59.4 L591.2,59.4 L593.1,59.4 L594.8,59.4 L596.8,59.4 L598.7,59.4 L600.5,63.2 L602.4,66.1 L604.3,66.1 L606.1,66.1 L608.0,66.1 L609.9,66.1 L611.7,66.1 L613.6,66.1 L615.6,66.1 L617.3,66.1 L619.3,66.1 L621.2,66.1 L623.1,63.6" stroke="#dc2626" stroke-width="1.2" stroke-dasharray="4 3"/><path class="s" stroke="#2563eb" stroke-width="2" d="M72,42 L90,42"/><text class="l" x="96" y="46">gPO 환산 개구 (제어 프로그램)</text><path class="s" stroke="#dc2626" stroke-width="2" stroke-dasharray="4 3" d="M72,57 L90,57"/><text class="l" x="96" y="61">레이저 실측 개구 (측정장비)</text><text class="a" x="343" y="292" text-anchor="middle">측정장비 시간 [s]   ·   앞 32초 구간, 제어 로그 -88.42 s 정합</text><text class="a" x="-144" y="14" transform="rotate(-90)" text-anchor="middle">개구 [mm]</text></svg>